# xmcd
#
# Track frame offsets: 
#        150
#        18977
#        47205
#        69512
#        100542
#        118755
#        147517
#        161275
#        182327
#        200165
#        233435
#        247735
#        265655
#
# Disc length: 3715 seconds
#
# Revision: 3
# Processed by: cddbd v1.5.2PL0 Copyright (c) Steve Scherf et al.
# Submitted via: ExactAudioCopy v0.99pb4
#
DISCID=a30e810d
DTITLE=Psycho Grass - Like Minds
DYEAR=1996
DGENRE=Bluegrass
TTITLE0=Tree King Creek
TTITLE1=3rd Stone From the Sun
TTITLE2=Creaking Tree
TTITLE3=Hot Nickels
TTITLE4=Jeremy Reel
TTITLE5=Forgiven/Stuart Symington's Summer Song
TTITLE6=Tennessee Twister
TTITLE7=Big Monk
TTITLE8=Garlic and Sapphires
TTITLE9=Fuzzy Navel
TTITLE10=Big Gravel
TTITLE11=Mind's Meat
TTITLE12=Rid the Wild Brains
EXTD=
EXTT0=
EXTT1=
EXTT2=
EXTT3=
EXTT4=
EXTT5=
EXTT6=
EXTT7=
EXTT8=
EXTT9=
EXTT10=
EXTT11=
EXTT12=
PLAYORDER=
